<svg width="76" height="22" viewBox="0 0 76 22" fill="none" xmlns="http://www.w3.org/2000/svg">
<path d="M68.1875 13.5635L71.9258 7.33496H75.4912L65.7227 22H62.3633L65.7754 17.0254L64.2178 7.33496H67.4326L68.1875 13.5635ZM9.42871 3.7373H12.6631L11.4619 10.5088H9.92383L8.77637 17.1045H5.54102L4.69434 20.8428H2.40137L3.24902 17.1045H0L1.22266 10.5088H2.71973L3.88574 3.7373H7.13672L7.9248 0H10.2178L9.42871 3.7373ZM45.7207 7.12988C46.7235 7.12992 47.5757 7.29393 48.2764 7.62207C48.9905 7.93655 49.4918 8.42197 49.7803 9.07812C50.0825 9.72068 50.1172 10.5343 49.8838 11.5186L48.874 15.9082C48.8191 16.1816 48.7707 16.5167 48.7295 16.9131C48.6883 17.2957 48.6816 17.5898 48.709 17.7949H45.6582C45.6445 17.5625 45.6512 17.2821 45.6787 16.9541C45.7063 16.7345 45.7486 16.4877 45.8008 16.2129C45.4581 16.659 45.061 17.0432 44.6074 17.3643C44.003 17.7881 43.2339 17.9999 42.2998 18C41.3655 18 40.616 17.7608 40.0527 17.2822C39.5033 16.8037 39.2285 16.1885 39.2285 15.4365C39.2285 14.6163 39.4414 13.9395 39.8672 13.4062C40.3068 12.8731 40.9115 12.4561 41.6807 12.1553C42.4638 11.8545 43.3777 11.6485 44.4219 11.5391L46.8613 11.2822L46.957 10.8623C47.0394 10.5206 47.0191 10.2402 46.8955 10.0215C46.7856 9.78906 46.6067 9.61817 46.3594 9.50879C46.1121 9.3994 45.8161 9.34473 45.4727 9.34473C44.9234 9.34478 44.4771 9.45425 44.1338 9.67285C43.8042 9.87786 43.5981 10.1173 43.5156 10.3906H40.6094C40.9254 9.41994 41.5299 8.63381 42.4229 8.03223C43.3159 7.43058 44.4155 7.12988 45.7207 7.12988ZM60.7979 17.7949H57.7686L58.126 16.3105C57.8422 16.7798 57.4565 17.1591 56.9648 17.4463C56.3329 17.8155 55.5843 18 54.7188 18C53.496 18 52.5269 17.631 51.8125 16.8926C51.0983 16.1542 50.7412 15.1015 50.7412 13.7344C50.7412 12.8319 50.8853 11.9835 51.1738 11.1904C51.4623 10.3975 51.8676 9.70019 52.3896 9.09863C52.9117 8.48338 53.5163 8.00492 54.2031 7.66309C54.89 7.30763 55.632 7.12994 56.4287 7.12988C57.1294 7.12988 57.7348 7.25973 58.2432 7.51953C58.7512 7.77928 59.1355 8.1349 59.3965 8.58594C59.5371 8.81682 59.6319 9.06405 59.6826 9.32715L61.1279 3.02734H64.2197L60.7979 17.7949ZM34.9961 5.44824H30.1533L27.2891 17.7949H24.1152L26.9795 5.44824H22.1367L22.6934 3.02734H35.5527L34.9961 5.44824ZM39.5195 7.12988C39.7394 7.12988 39.9386 7.15038 40.1172 7.19141C40.3094 7.21874 40.4604 7.25296 40.5703 7.29395L39.9111 10.1445C39.7463 10.0899 39.5402 10.0488 39.293 10.0215C39.0594 9.98046 38.8321 9.95996 38.6123 9.95996C37.7746 9.96002 37.1426 10.131 36.7168 10.4727C36.301 10.8063 36.0172 11.3035 35.8633 11.9629L34.5117 17.7949H31.4199L33.8525 7.33496H36.8818L36.5195 8.87598C36.84 8.4112 37.2073 8.03384 37.623 7.74512C38.2138 7.3349 38.8463 7.12988 39.5195 7.12988ZM44.3398 13.3447C43.7492 13.4131 43.2684 13.5772 42.8975 13.8369C42.5265 14.083 42.3408 14.4316 42.3408 14.8828C42.3408 15.1698 42.4571 15.3887 42.6904 15.5391C42.924 15.6758 43.2403 15.7441 43.6387 15.7441C44.3256 15.7441 44.9098 15.5596 45.3906 15.1904C45.8112 14.8556 46.0846 14.4998 46.2109 14.123L46.2549 13.9629L46.4561 13.0771L44.3398 13.3447ZM56.9443 9.69336C56.3536 9.69336 55.8313 9.87107 55.3779 10.2266C54.9384 10.5683 54.5882 11.0128 54.3271 11.5596C54.0798 12.1065 53.9561 12.6884 53.9561 13.3037C53.9561 14.042 54.1418 14.6162 54.5127 15.0264C54.8973 15.4365 55.3917 15.6415 55.9961 15.6416C56.3533 15.6416 56.6831 15.5732 56.9854 15.4365C57.3013 15.2998 57.576 15.1152 57.8096 14.8828C58.0569 14.6504 58.2706 14.3838 58.4492 14.083C58.6278 13.7686 58.7584 13.4404 58.8408 13.0986C58.937 12.7433 58.9843 12.3876 58.9844 12.0322C58.9844 11.2938 58.7919 10.7188 58.4072 10.3086C58.0363 9.8986 57.5487 9.69336 56.9443 9.69336Z" fill="white"/>
<path d="M9.42903 3.73762H11.1016L11.1016 3.73771H12.6627L11.4619 10.5093L9.92382 10.5093L8.7766 17.1051H5.54104L4.69387 20.8427H2.40147L3.24866 17.1051H1.61552H0L1.22261 10.5093H2.71931L3.88616 3.73762H7.13663L7.92507 0H10.2175L9.42903 3.73762Z" fill="#FFF93C"/>
</svg>
